<?xml version="1.0" encoding="UTF-8"?>
<svg width="289pt" version="1.1" xmlns="http://www.w3.org/2000/svg" height="167.01pt" viewBox="0 0 289 167.01" xmlns:xlink="http://www.w3.org/1999/xlink">
 <defs>
  <clipPath id="Clip0">
   <path d="M0 0 L289 0 L289 167.013 L0 167.013 L0 0 Z" transform="translate(0, 0)"/>
  </clipPath>
  <clipPath id="Clip1">
   <path d="M0 0 L289 0 L289 167.013 L0 167.013 L0 0 Z" transform="translate(0, 0)"/>
  </clipPath>
 </defs>
 <g id="Background">
  <g id="Group13" clip-path="url(#Clip0)">
   <path style="fill:#ffffff; fill-rule:evenodd;stroke:#ffffff; stroke-width:0.0939807; stroke-linecap:butt; stroke-linejoin:miter; stroke-dasharray:none;" d="M0 0 L281.942 0 L281.942 159.767 L0 159.767 L0 0 Z" transform="translate(4.69903, 3.52428)"/>
   <g id="Group12" clip-path="url(#Clip1)">
    <path style="fill:#0079fa; fill-rule:nonzero;stroke:#0079fa; stroke-width:0.0101757; stroke-linecap:butt; stroke-linejoin:miter; stroke-dasharray:none;" d="M0 83.5018 L0 167.004 L144.495 167.004 L288.991 167.004 L288.991 83.5018 L288.991 0 L144.495 0 L0 0 L0 83.5018 Z M49.3962 6.06175 C53.3716 6.38129 56.473 6.99216 60.0819 8.17632 C61.7453 8.72141 66.5759 10.5352 66.7075 10.6668 C66.7827 10.7326 66.8579 34.3029 66.7827 34.3029 C66.7639 34.3029 66.4068 34.0962 66.0026 33.8518 C61.5386 31.0888 54.6498 28.3728 49.2929 27.2544 C46.6614 26.7093 44.8852 26.5026 42.8364 26.5026 C39.876 26.5026 37.9494 27.0664 36.7464 28.2788 C35.9288 29.1058 35.5341 30.1866 35.6657 31.2392 C35.8442 32.5549 36.6337 33.3443 38.5321 34.1056 C38.9174 34.256 42.4981 35.4213 46.4734 36.6995 C54.443 39.2369 56.0313 39.782 58.1365 40.656 C61.6325 42.1033 64.1982 43.5319 66.5759 45.3269 C69.1698 47.3005 71.0588 49.5278 72.4497 52.3003 L73.0136 53.428 L73.023 31.8782 L73.023 10.3379 L85.9453 10.3379 L98.8677 10.3379 L98.8677 17.9033 L98.8677 25.4688 L107.561 25.4688 L116.254 25.4688 L116.254 35.4307 L116.254 45.3927 L107.561 45.3927 L98.8583 45.3927 L98.8865 53.5878 C98.9147 61.0593 98.9335 61.8393 99.0838 62.3374 C99.488 63.7095 100.174 64.6023 101.217 65.1286 C102.082 65.5703 102.909 65.7113 104.572 65.7019 C108.285 65.6925 111.63 64.6399 115.671 62.234 L117.203 61.3224 L117.147 60.7115 C116.893 57.7981 116.856 56.1441 117.006 53.8039 C117.589 44.7442 120.728 37.1412 126.094 31.8031 C129.562 28.3352 134.026 25.9387 138.809 24.9613 C140.915 24.5384 142.456 24.4068 144.965 24.4632 C147.381 24.5102 148.555 24.6605 150.416 25.1492 C153.762 26.0233 157.098 27.978 159.419 30.4403 L160.049 31.1076 L160.049 28.2882 L160.049 25.4688 L172.971 25.4688 L185.894 25.4688 L185.913 44.6126 C185.941 62.4784 185.95 63.8035 186.101 64.311 C186.476 65.5327 187.069 66.2846 187.886 66.5383 C188.751 66.8109 190.696 66.6229 192.407 66.106 L193.224 65.8523 L193.224 45.6558 L193.224 25.4688 L206.147 25.4688 L219.069 25.4688 L219.069 27.8183 L219.069 30.1678 L219.774 29.6039 C223.251 26.8503 227.678 25.0646 232.527 24.4726 C234.228 24.2658 237.499 24.2658 239.134 24.4726 C244.895 25.215 249.538 27.7619 252.695 31.9252 C255.703 35.8818 257 39.4437 257.761 45.7686 C257.911 47.0091 257.921 48.87 257.949 67.168 L257.986 87.2141 L245.055 87.2141 L232.132 87.2141 L232.132 71.2374 C232.132 60.5142 232.095 54.9599 232.029 54.349 C231.672 51.1255 230.159 49.1331 227.527 48.4282 C226.663 48.1933 224.041 48.1933 222.941 48.4376 C221.559 48.729 220.122 49.3117 219.37 49.8755 L219.069 50.1011 L219.069 68.6623 L219.069 87.2141 L206.147 87.2141 L193.224 87.2141 L193.224 86.8382 C193.224 86.6314 193.196 86.4622 193.168 86.4622 C193.14 86.4622 192.707 86.5656 192.209 86.6878 C189.869 87.2799 186.693 87.7968 183.45 88.1257 C181.383 88.3324 175.518 88.3606 174.193 88.1727 C170.988 87.7216 168.545 86.8663 166.553 85.5036 C164.936 84.4041 163.169 82.3271 162.323 80.532 C162.135 80.1279 161.957 79.7896 161.929 79.7896 C161.901 79.7896 161.703 80.0058 161.506 80.2783 C160.98 80.9644 159.297 82.6372 158.423 83.3515 C154.25 86.7348 149.129 88.4076 143.509 88.2197 C138.377 88.0505 133.894 86.6502 129.881 83.9717 C128.274 82.9004 127.316 82.1109 125.944 80.7482 C125.304 80.1091 124.731 79.611 124.675 79.6298 C124.618 79.658 123.867 80.1561 123.021 80.7482 C116.846 85.0337 108.726 87.6182 99.394 88.2573 C97.0914 88.417 92.8811 88.323 91.3022 88.0787 C84.0939 86.9603 79.1787 83.671 76.0962 77.91 C74.959 75.7766 73.944 72.6283 73.5211 69.8652 C73.4271 69.2732 73.3331 68.7939 73.3049 68.7939 C73.2673 68.7939 73.1076 69.2074 72.9384 69.7055 C71.6697 73.4647 69.6961 76.5567 66.7545 79.4137 C61.7735 84.2631 54.8095 87.1765 46.0035 88.1069 C44.0487 88.3136 39.1899 88.3982 37.0284 88.2573 C29.6979 87.778 21.8035 85.9923 15.1497 83.3233 C13.2043 82.5432 10.9769 81.4719 11.0239 81.3497 C11.0427 81.2933 12.3867 76.3687 14.0125 70.4103 C15.6384 64.4614 16.9917 59.5838 17.0293 59.5838 C17.0669 59.5838 17.5556 59.8751 18.1101 60.2228 C24.6699 64.3674 32.5455 67.1492 39.1899 67.6661 C41.5207 67.8541 43.1935 67.7037 44.669 67.168 C46.5862 66.4725 47.9114 65.044 48.2121 63.343 C48.5598 61.4164 47.3945 59.9409 44.6032 58.7849 C44.1521 58.597 40.2143 57.4598 35.8724 56.2474 C26.4744 53.6348 25.0177 53.1649 22.0197 51.7364 C17.2736 49.4714 13.9279 46.4453 12.0483 42.7142 C10.9112 40.4681 10.3473 38.4475 9.99954 35.5153 C9.80219 33.8049 9.85857 29.9986 10.1029 28.4761 C10.7608 24.2846 12.4336 20.4314 14.9711 17.2455 C19.5386 11.522 26.8785 7.75341 36.145 6.39069 C37.3761 6.21212 40.1579 5.94898 41.5865 5.88319 C43.0526 5.8174 47.6388 5.92078 49.3962 6.06175 Z M277.243 66.4725 C279.179 66.933 280.692 67.7037 281.933 68.8596 C283.483 70.2976 284.423 72.1396 284.818 74.5173 C285.006 75.692 284.959 78.5021 284.724 79.5265 C284.028 82.562 282.412 84.7142 279.921 85.9453 C278.23 86.7724 276.754 87.1107 274.471 87.1859 C268.014 87.3926 264.067 84.6014 263.08 79.0941 C262.873 77.9382 262.873 75.5323 263.08 74.3763 C263.804 70.3539 266.059 67.7601 269.781 66.6793 C271.247 66.247 272.027 66.1624 274.236 66.2 C275.993 66.2282 276.388 66.2658 277.243 66.4725 Z M257.977 131.103 L257.977 158.076 L134.439 158.076 L10.9018 158.076 L10.9018 131.103 L10.9018 104.131 L134.439 104.131 L257.977 104.131 L257.977 131.103 Z" transform="translate(0.00469903, 0.00469903)"/>
    <path style="fill:#0079fa; fill-rule:nonzero;stroke:#0079fa; stroke-width:0.0101757; stroke-linecap:butt; stroke-linejoin:miter; stroke-dasharray:none;" d="M7.19892 0.131573 C2.60326 0.855224 0 4.30432 0 9.67061 C0 13.7588 1.61647 16.8037 4.55806 18.2886 C6.78541 19.4164 10.3285 19.501 13.3171 18.5048 C14.3509 18.1571 15.5256 17.6026 16.315 17.0763 L16.8225 16.738 L16.8225 9.60483 L16.8225 2.48109 L16.1647 2.05818 C14.9993 1.29693 13.3547 0.667263 11.6066 0.310136 C10.5258 0.0939807 8.08234 0 7.19892 0.131573 Z" transform="translate(143.231, 46.7695)"/>
    <path style="fill:#0079fa; fill-rule:nonzero;stroke:#0079fa; stroke-width:0.0101757; stroke-linecap:butt; stroke-linejoin:miter; stroke-dasharray:none;" d="M15.9015 0.178563 C12.9411 0.573282 9.89617 1.74804 7.58424 3.3927 C6.57865 4.10696 4.91519 5.66704 4.09756 6.66323 C2.50928 8.60863 1.22175 11.2213 0.620273 13.7118 C0.0187961 16.2493 0 19.642 0.58268 22.1794 C0.949205 23.7959 1.71045 25.7037 2.53748 27.1134 C5.93958 32.8932 12.1423 36.1638 19.1909 35.9006 C24.106 35.7127 28.354 33.9176 31.6621 30.6377 C38.2971 24.0497 38.6543 13.0727 32.4703 6.04296 C29.6415 2.83822 25.6285 0.751845 21.1832 0.169165 C19.8299 0 17.2079 0 15.9015 0.178563 Z M19.7829 7.17073 C24.4162 7.75341 27.9405 11.2777 28.7487 16.1365 C28.8897 16.9823 28.8897 19.0405 28.7487 19.9145 C28.0532 24.1624 25.2244 27.433 21.3336 28.4667 C20.2058 28.7675 18.8337 28.8897 17.612 28.7769 C15.1215 28.5607 13.0727 27.6115 11.3435 25.8823 C9.65182 24.1812 8.69321 22.2922 8.2797 19.8581 C8.05414 18.486 8.12933 16.315 8.45826 15.0557 C9.01275 12.9411 9.87737 11.3811 11.3059 9.95255 C13.4392 7.81919 16.6158 6.77601 19.7829 7.17073 Z" transform="translate(113.75, 113.129)"/>
    <path style="fill:#0079fa; fill-rule:nonzero;stroke:#0079fa; stroke-width:0.0101757; stroke-linecap:butt; stroke-linejoin:miter; stroke-dasharray:none;" d="M11.3059 0.131573 C10.2063 0.263146 8.56164 0.723651 7.56545 1.15596 C3.26113 3.04497 0.977399 6.93577 1.40971 11.6348 C1.78563 15.77 3.69344 18.0537 8.23271 19.8017 C9.37927 20.2434 10.2627 20.5066 13.3265 21.343 C17.33 22.4426 18.9183 23.2038 19.4822 24.3034 C19.7641 24.8391 19.8205 25.9575 19.6138 26.5965 C18.9183 28.6735 15.5726 29.4911 11.6066 28.5419 C9.52964 28.0438 6.97337 26.7281 5.04676 25.168 C4.74602 24.9237 4.46408 24.7545 4.42649 24.8015 C4.3889 24.8391 3.37391 26.0608 2.18035 27.4987 L0 30.1208 L0.216156 30.3558 C0.33833 30.4779 0.836428 30.8915 1.32513 31.258 C4.31371 33.5135 7.64063 34.9044 11.4938 35.5059 C13.1009 35.7597 16.3902 35.7409 17.9033 35.4683 C23.3072 34.4815 26.6247 31.2862 27.2732 26.4462 C27.433 25.2338 27.3296 23.2978 27.0476 22.1888 C26.6247 20.5724 25.7601 19.1533 24.5102 18.0725 C22.7339 16.5218 20.422 15.5162 15.7512 14.2475 C10.1217 12.725 9.00335 12.0107 8.99395 9.93376 C8.98455 9.36048 9.03154 9.07853 9.18191 8.7496 C9.7082 7.62183 10.9957 6.93577 12.8472 6.8136 C15.4128 6.64443 18.5236 7.66882 21.6156 9.7082 C21.9915 9.96195 22.3392 10.1405 22.3862 10.1217 C22.4802 10.0559 26.3428 4.42649 26.3052 4.3983 C26.2864 4.3889 26.0139 4.17274 25.6943 3.93779 C23.0253 1.90781 19.3882 0.498098 15.8733 0.122175 C14.7926 0 12.2739 0.00939807 11.3059 0.131573 Z" transform="translate(18.8854, 113.233)"/>
    <path style="fill:#0079fa; fill-rule:nonzero;stroke:#0079fa; stroke-width:0.0101757; stroke-linecap:butt; stroke-linejoin:miter; stroke-dasharray:none;" d="M0 17.3864 L0 34.7729 L3.80622 34.7729 L7.61244 34.7729 L7.61244 29.5569 L7.61244 24.341 L10.9394 24.341 C14.3978 24.341 15.5444 24.2658 17.1797 23.9557 C21.7941 23.0629 25.2432 20.3374 26.6341 16.4654 C27.1322 15.0651 27.292 14.0219 27.292 12.0765 C27.292 10.5916 27.2544 10.1311 27.0852 9.33228 C25.9387 4.02237 21.9633 0.714253 15.9767 0.0939807 C15.4692 0.0469903 11.8134 0 7.54665 0 L0 0 L0 17.3864 Z M15.3846 7.13313 C17.5932 7.59364 19.0029 8.86238 19.4634 10.8078 C19.5292 11.0897 19.5856 11.7288 19.5762 12.2175 C19.5762 14.8959 17.9221 16.8131 15.1497 17.3488 C14.6328 17.4428 13.5802 17.4804 11.0333 17.4804 L7.61244 17.4804 L7.61244 12.2175 L7.61244 6.95457 L11.0709 6.95457 C14.0877 6.95457 14.6234 6.98276 15.3846 7.13313 Z" transform="translate(67.5768, 113.721)"/>
    <path style="fill:#0079fa; fill-rule:nonzero;stroke:#0079fa; stroke-width:0.0101757; stroke-linecap:butt; stroke-linejoin:miter; stroke-dasharray:none;" d="M0.0187961 17.3582 L0.0469903 34.7259 L3.85321 34.7259 L7.65943 34.7259 L7.68762 29.1998 L7.70642 23.6831 L10.695 23.6831 L13.6742 23.6925 L17.3676 29.228 L21.0517 34.7729 L25.4782 34.7729 C28.9836 34.7729 29.8953 34.7447 29.8577 34.6507 C29.8389 34.5943 27.9499 31.8031 25.6661 28.448 C23.3918 25.1022 21.5216 22.3486 21.5216 22.3204 C21.5216 22.2922 21.5686 22.2734 21.625 22.2734 C21.8411 22.2734 23.3354 21.5122 24.0872 21.0235 C26.3522 19.548 27.8089 17.4898 28.5325 14.7362 C28.8615 13.458 28.9554 10.8078 28.7205 9.33228 C27.8747 3.99418 23.9651 0.676661 17.8093 0.0939807 C17.1797 0.0375923 13.458 0 8.38308 0 L0 0 L0.0187961 17.3582 Z M16.7568 7.05795 C19.595 7.49966 21.1363 9.20071 21.1457 11.8886 C21.1457 13.8809 20.2716 15.3376 18.5894 16.1553 C17.2924 16.785 16.9541 16.8225 12.0295 16.8225 L7.70642 16.8225 L7.70642 11.8886 L7.70642 6.95457 L11.898 6.95457 C14.5012 6.95457 16.3338 6.99216 16.7568 7.05795 Z" transform="translate(171.989, 113.721)"/>
    <path style="fill:#0079fa; fill-rule:nonzero;stroke:#0079fa; stroke-width:0.0101757; stroke-linecap:butt; stroke-linejoin:miter; stroke-dasharray:none;" d="M0 3.52428 L0 7.04855 L5.21593 7.04855 L10.4319 7.04855 L10.4507 20.8825 L10.4788 34.7259 L14.2851 34.7259 L18.0913 34.7259 L18.1195 20.8825 L18.1383 7.04855 L23.4012 7.04855 L28.6641 7.04855 L28.6453 3.54307 L28.6171 0.0469903 L14.3133 0.0187961 L0 0 L0 3.52428 Z" transform="translate(220.107, 113.721)"/>
   </g>
  </g>
 </g>
</svg>
