<?xml version="1.0" encoding="utf-8"?>
<!-- Generator: Adobe Illustrator 19.0.0, SVG Export Plug-In . SVG Version: 6.00 Build 0)  -->
<svg version="1.1" id="layer" xmlns="http://www.w3.org/2000/svg" xmlns:xlink="http://www.w3.org/1999/xlink" x="0px" y="0px"
	 viewBox="-153 -46 652 652" style="enable-background:new -153 -46 652 652;" xml:space="preserve">
<style type="text/css">
	.st0{fill:#ffffff;}
</style>
<path class="st0" d="M-24.5,334.5L-24.5,334.5c0,11.8-9.6,21.4-21.7,21c-10.7-0.4-20.3-9.1-20.2-21.3c0.2-11.4,9.4-20.7,21.3-20.6
	C-33.6,313.8-24.5,323.2-24.5,334.5z M-66.5,278.2c0,11.7,9.2,21,20.7,21.2c12,0.1,21.2-9.5,21.2-20.9c0-11.9-9.7-21.2-20.9-21l0,0
	C-56.3,257.3-66.4,266.1-66.5,278.2z M-105.2,313.6c-11.9-0.1-21.1,9.4-21.2,20.8c-0.1,11.7,9.3,20.8,20.5,21.1
	c12.1,0.2,21.6-9.6,21.4-21l0,0C-84.4,323.6-93.3,313.7-105.2,313.6z M-24.5,222.2c0-11.2-8.8-20.9-20.9-20.9
	c-11.8-0.1-20.7,9.2-21,20.4c-0.2,12.1,9.4,21.4,20.9,21.4l0,0C-33.9,243.1-24.5,233.9-24.5,222.2z M-105.1,257.5
	c-11.3-0.2-21.1,8.9-21.3,20.6c-0.2,11.7,9.2,21.4,21.2,21.2c12-0.1,20.8-9.9,20.7-20.9l0,0C-84.4,266.9-93.9,257.7-105.1,257.5z
	 M-84.5,222.9c0.3-11.6-8.8-21.7-21-21.6c-12,0-21.1,9.7-20.9,21.2c0.2,11.5,9.5,20.6,20.9,20.6l0,0
	C-93.8,243.2-84.9,233.7-84.5,222.9z M-6.4,278.4c0,11.6,9.2,21,20.9,21c11.5,0,20.9-9.1,20.9-20.9c0.1-12.3-9.9-21.2-20.8-21l0,0
	C3.5,257.3-6.4,266.5-6.4,278.4z M35.5,222.2c0-11.7-9.2-20.9-20.9-20.9c-12,0-21,9.6-20.9,20.9c0,11.8,9.5,21,20.9,20.9l0,0
	C25.8,243.2,35.5,234.3,35.5,222.2z M13.8,355.5c11.8,0.4,21.7-8.8,21.7-21c0-11.7-9.2-20.7-20.5-20.9C3,313.4-6.4,323-6.4,334.5
	l0,0C-6.4,346.1,2.8,355.1,13.8,355.5z M218,201.3c-10.9,0-19.7,8.8-19.7,19.6c0,10.9,8.8,19.7,19.7,19.7c10.9,0,19.6-8.8,19.6-19.7
	l0,0C237.7,210.1,228.9,201.3,218,201.3z M250.6,340.3L250.6,340.3v4.2c0,0.5,0,1,0,1.4c0.2,3.9,1.6,7.7,5.1,8.6c0.1,0,0.1,0,0.2,0
	h19.8h12.3h0.4c0.4,0,0.6-0.4,0.5-0.7c-0.6-1.4-0.9-3.4-0.9-5.8v-2.4c0-1.7,0-3.4,0-5.1V293c0-2.9,0.4-5.9,1.1-7.5v-0.1h0.1
	c0.9-2.6,4.7-11.1,14.8-11.1c9.7,0,14.7,7.1,14.7,21.1c0,0,0,37.2-0.1,46.9c0,1.3,0,2.1,0,2.3l0.1,1.5c0.2,3.8,1.6,7.5,5.1,8.4h0.1
	h32.1h0.5c0.3,0,0.6-0.4,0.4-0.7c-0.5-1.3-0.8-3.2-0.9-5.5v-57.1c0-30-15-47.9-40.3-47.9c-14.7,0-25.7,7-32.1,14.4
	c-1.6-6.5-6-10.9-12.2-12c-7.4-1.4-21.5,0-21.5,0l-1.2,0.1c-0.3,0.1-0.6,0.3-0.5,0.5c1.8,7.2,2.3,22.3,2.3,36.6
	C250.6,283,250.6,325.2,250.6,340.3z M199.4,247.4L199.4,247.4c0,0-0.1,85.3-0.1,95c0,1.3,0,2.1,0,2.3l0.1,1.5
	c0.2,3.8,1.6,7.5,5.1,8.4c0,0,0,0,0.1,0h32.1h0.5c0.3,0,0.5-0.4,0.4-0.7c-0.5-1.3-0.8-3.2-0.9-5.5v-101H199.4z M437.8,283.8
	c-0.9-1.8-2.2-3.6-3.8-5.3c-1.7-1.8-3.9-3.1-6.6-4.3c-2.7-1.2-5.8-1.8-9.5-1.8s-7,0.6-9.6,1.8c-2.6,1.2-4.8,2.6-6.5,4.3
	c-1.8,1.7-3.1,3.5-3.8,5.3c-0.5,1.1-1,2.1-1.3,3H439l0,0C438.7,285.8,438.3,284.8,437.8,283.8z M473.3,308.1l-0.2,2.7h-77.1
	c1.2,4.8,3.5,8.6,7.3,11.4c4.2,3.2,9.2,4.8,14.9,4.8c4.3,0,7.9-0.9,10.4-2.6c1.7-1.1,2.4-1.7,3.7-3l0.2-0.2c0.1-0.1,0.2-0.1,0.3-0.2
	l0.3-0.3c2-1.9,3.9-3.3,9.2-3.3c1.3,0,9.3,0,12.1,0h16.6l-1.9,4.1c-2.4,5.2-5.2,9.8-8.5,13.8c-1.6,2-3.3,3.9-5.2,5.7
	c-2.3,2.1-4.6,4-7,5.7c-0.6,0.4-1.1,0.8-1.7,1.1c-8.4,5.6-18.1,8.4-28.6,8.4c-7.7,0-14.9-1.4-21.7-4.3c-6.7-2.8-12.7-6.9-17.9-11.9
	c-5.1-5.1-9.2-11.1-12.2-17.9c-1.5-3.2-2.6-6.8-3.3-10.3l-0.5-2.4h0.1c-1.9-12.8,0.2-20.7,0.6-22c0-0.1,0-0.2,0-0.3
	c0.7-3,1.5-5.5,2.7-8.6c2.7-6.8,6.6-13,11.5-18.2c5-5.1,10.9-9.4,17.7-12.6c6.9-3.1,14.3-4.8,22.4-4.8c8,0,15.5,1.6,22.4,4.5
	c6.9,2.9,12.9,7.2,17.8,12.4c5,5.2,8.9,11.4,11.7,18.5c1.4,3.5,2.4,7.3,3.1,11v0.1c0.1,0.2,0.8,4.9,0.8,9.4c0,0.7,0,1.5,0.1,2.2l0,0
	C473.5,303.4,473.5,305.8,473.3,308.1z M90.8,354.5v-85.2l55.4,75c4.7,6.4,12.3,10.2,20.2,10.2l19,0l0-152.5h-37.3v81.9l-52.2-71.6
	c-4.8-6.5-12.3-10.3-20.3-10.3H53.4v152.5l0,0H90.8z"/>
</svg>
